# xmcd
#
# Track frame offsets:
#	150
#	13501
#	26815
#	45469
#	58048
#	71163
#	85007
#	97851
#	112103
#	125700
#	141411
#	157444
#	171726
#
# Disc length: 2485 seconds
#
# Revision: 1
# Processed by: cddbd v1.5.1PL0 Copyright (c) Steve Scherf et al.
# Submitted via: audiograbber 1.83.01
#
DISCID=c109b30d
DTITLE=Truck Stop - Trucker, Cowboys, Männer - CD 2
DYEAR=2002
DGENRE=Country
TTITLE0=Take It Easy (Englische Version)
TTITLE1=Arizona - Arizona
TTITLE2=Route 66
TTITLE3=Wegseh'n Und Schweigen
TTITLE4=Ich Würd So Gern Mal Wieder Sündigen
TTITLE5=Ich Bin Verliebt
TTITLE6=Hey, Mach Mal Pause
TTITLE7=Dann Kommt Country-Musik
TTITLE8=Tausend Meilen
TTITLE9=Cowboys
TTITLE10=California
TTITLE11=Du Bist Immer Auf Achse
TTITLE12=Louisiana Ladies
EXTD=Re-Edited by STARMASTER, Berlin 2005
EXTT0=
EXTT1=
EXTT2=
EXTT3=
EXTT4=
EXTT5=
EXTT6=
EXTT7=
EXTT8=
EXTT9=
EXTT10=
EXTT11=
EXTT12=
PLAYORDER=
